Simulation
nRows=23
nColumns=15
endheader
time  TH_x TH_y TH_z SC_y  SC_z  SC_x  AC_y  AC_z  AC_x  GH_y  GH_z  GH_yy  EL_x  PS_y
0.0  0.000000  0.000000  0.000000  -35.65659221185518  3.321192432429339  2.4978700584254483  54.87416492489513  6.201904145121195  -5.845325779646995  -3.3309748861080544  4.778567686570627  20.92640908932957  23.09963689208705  0.000000
0.011899999999999999  0.000000  0.000000  0.000000  -35.86141697087904  3.2420275265915004  2.322714251563884  54.68888466941363  6.333011911529094  -5.910344252152699  -3.1387366236962406  4.704344500267981  20.756936115245658  23.02399551731866  0.000000
0.023799999999999998  0.000000  0.000000  0.000000  -35.86744947385735  3.395770173268734  2.178609858347789  54.48785353753153  6.399131518492477  -5.851816784826551  -2.685887236055071  4.507768868502665  20.639858214814275  22.88509601487057  0.000000
0.035699999999999996  0.000000  0.000000  0.000000  -35.8739948774629  3.537434278205368  2.0569616680312723  54.322569579115154  6.458804097291087  -5.775192708849327  -2.162827715861499  4.352017932173159  20.557287892507574  22.772408616989065  0.000000
0.047599999999999996  0.000000  0.000000  0.000000  -35.898373999574574  3.6375611500635046  1.9495129528399027  54.22208737522621  6.510289330216221  -5.693729648456285  -1.6825264105668083  4.256189817519057  20.498868197518824  22.680659476700104  0.000000
0.0595  0.000000  0.000000  0.000000  -35.93771323328844  3.695707327131994  1.8614135503357911  54.167736378257935  6.546105814231824  -5.620830675746053  -1.2760250867431926  4.224624923159943  20.492602217835504  22.613042953985797  0.000000
0.07139999999999999  0.000000  0.000000  0.000000  -35.97463790315952  3.724833067942632  1.7998116748039144  54.14321491680369  6.556677252812267  -5.5637045395863245  -0.9669913795600731  4.245730924479742  20.540701196473627  22.573418253027583  0.000000
0.0833  0.000000  0.000000  0.000000  -36.003585629140474  3.737746358767636  1.7582506869048935  54.13775567746869  6.5431347472969685  -5.51779186112129  -0.7567704610524776  4.3160366887557435  20.64751551160586  22.56309049690568  0.000000
0.09519999999999999  0.000000  0.000000  0.000000  -36.02444538311199  3.741563853680476  1.7299958380826024  54.14098709142536  6.510869913679126  -5.482049311563848  -0.6445891276583361  4.433134530161016  20.80804113877087  22.58772727262471  0.000000
0.10709999999999999  0.000000  0.000000  0.000000  -36.04035308990101  3.7416427464663333  1.7102536220738989  54.14652870630981  6.462869326183424  -5.454756135370274  -0.6251265673282425  4.5971843689904555  21.014412080781902  22.645099314506965  0.000000
0.119  0.000000  0.000000  0.000000  -36.05387555381116  3.7399763594700652  1.6947291595289935  54.15157859686575  6.402454586527692  -5.435127135733528  -0.6928949684893495  4.808026459492878  21.255202083998313  22.73009943184782  0.000000
0.1309  0.000000  0.000000  0.000000  -36.066178686723866  3.7365433965352604  1.682642333558556  54.15260535426526  6.330153152318002  -5.422734971021602  -0.8401680964132975  5.06544840445513  21.519455725396217  22.834624622783902  0.000000
0.14279999999999998  0.000000  0.000000  0.000000  -36.077407174579946  3.732389534925025  1.673359403313856  54.15042633346738  6.246581805639632  -5.415920540153688  -1.059755238896357  5.36842830129548  21.79463696321324  22.952233926927345  0.000000
0.15469999999999998  0.000000  0.000000  0.000000  -36.08832653623498  3.729081925887142  1.6666740324909761  54.145918547020266  6.152906554537563  -5.412161632699357  -1.3422629244397488  5.7164469494697085  22.070086868333128  23.078852686190967  0.000000
0.1666  0.000000  0.000000  0.000000  -36.09890022582692  3.7276939274219756  1.6633605989434774  54.140758177450145  6.05072395202133  -5.409730360077369  -1.6778033280241307  6.108858367676679  22.336373742518095  23.21160892845249  0.000000
0.1785  0.000000  0.000000  0.000000  -36.10888533845327  3.7289151699506213  1.6639620942020705  54.135847023331436  5.942578542684198  -5.406811487253203  -2.055140239782144  6.545217479565266  22.586308392347572  23.348131615554685  0.000000
0.19039999999999999  0.000000  0.000000  0.000000  -36.1185502963403  3.7329269496232147  1.6689296584732587  54.13386892907238  5.830844826016935  -5.402031777563954  -2.465774831405428  7.025484311743706  22.811391317000165  23.48733531623485  0.000000
0.20229999999999998  0.000000  0.000000  0.000000  -36.12909476443136  3.739597138275367  1.6793297899360344  54.136290377255165  5.7181872726009715  -5.394502705598142  -2.8998092924104637  7.549233675672941  23.005490022534776  23.627881257168855  0.000000
0.21419999999999997  0.000000  0.000000  0.000000  -36.141187091086046  3.7486731405037275  1.695411918471794  54.14542856162525  5.606792065178194  -5.383759232181264  -3.3495984854096177  8.116335190450544  23.162364923706754  23.768837468834086  0.000000
0.2261  0.000000  0.000000  0.000000  -36.15608336330077  3.759862102556409  1.7181949261051987  54.161316809517594  5.498845042266442  -5.369848020696843  -3.8061510127975255  8.725780887397153  23.278145835531074  23.90921599579563  0.000000
0.238  0.000000  0.000000  0.000000  -36.174635077758126  3.77299487062499  1.7475645689399342  54.18566921195252  5.395950713928072  -5.3528574461039256  -4.263005460512552  9.376898259671503  23.34885034883935  24.048127066788762  0.000000
0.24989999999999998  0.000000  0.000000  0.000000  -36.19783744957077  3.7878451740307884  1.7844896423977703  54.21769124721512  5.29940694766115  -5.3333466458171594  -4.712807708014096  10.06774967591931  23.37185714149563  24.18446054650245  0.000000
0.2618  0.000000  0.000000  0.000000  -36.226169840718434  3.8041888848462935  1.8287180836902994  54.25798839782215  5.210319981772518  -5.311689113177957  -5.150489171848469  10.796598332984136  23.344985215047416  24.317098511857345  0.000000
